<svg xmlns="http://www.w3.org/2000/svg" fill="none" viewBox="0 0 128 128"><g id="rainbow-cloud__rainbow-cloud" clip-path="url(#rainbow-cloud__clip0_2045_48555)"><g id="rainbow-cloud__Rainbow"><path id="rainbow-cloud__Purple" fill="#009bd1" fill-rule="evenodd" d="M64 66c9.205 0 16 6.795 16 16h4c0-11.046-8.954-20-20-20s-20 8.954-20 20h4c0-9.205 6.795-16 16-16" clip-rule="evenodd"/><path id="rainbow-cloud__Blue" fill="#6dc72f" fill-rule="evenodd" d="M64 62c11.046 0 20 8.954 20 20h4c0-13.255-10.745-24-24-24S40 68.745 40 82h4c0-11.046 8.954-20 20-20" clip-rule="evenodd"/><path id="rainbow-cloud__Green" fill="#ead300" fill-rule="evenodd" d="M64 58c13.255 0 24 10.745 24 24h4c0-15.464-12.536-28-28-28S36 66.536 36 82h4c0-13.255 10.745-24 24-24" clip-rule="evenodd"/><path id="rainbow-cloud__Yellow" fill="#ffb32a" fill-rule="evenodd" d="M64 54c15.464 0 28 12.536 28 28h4c0-17.673-14.327-32-32-32S32 64.327 32 82h4c0-15.464 12.536-28 28-28" clip-rule="evenodd"/><path id="rainbow-cloud__Red" fill="#ff1b02" fill-rule="evenodd" d="M64 50c17.673 0 32 14.327 32 32h4c0-19.882-16.118-36-36-36S28 62.118 28 82h4c0-17.673 14.327-32 32-32" clip-rule="evenodd"/></g><g id="rainbow-cloud__Cloud"><path id="rainbow-cloud__Cloud_2" fill="#e6effc" d="M103.194 71.562c1.173-4.512-1.434-9.14-5.69-10.849-4.312-1.732-9.543-.239-12.085 3.71-2.154-1.243-4.923-1.173-7.007.186-2.031 1.325-3.169 3.763-2.737 6.17-3.375.612-5.988 3.69-5.644 7.177.344 3.495 3.508 6.045 6.946 6.044 8.836 0 17.674-.007 26.511 0 3.423 0 6.512-2.715 6.512-6.226 0-3.631-3.279-6.36-6.806-6.212"/></g></g><defs><clipPath id="rainbow-cloud__clip0_2045_48555"><rect width="128" height="128" fill="#fff"/></clipPath></defs></svg>